<?xml version="1.0" encoding="UTF-8" standalone="no"?>
<!-- Created with Inkscape (http://www.inkscape.org/) -->

<svg
   width="400mm"
   height="400mm"
   viewBox="0 0 400 400"
   version="1.1"
   id="svg1"
   inkscape:version="1.4 (e7c3feb100, 2024-10-09)"
   sodipodi:docname="icon.svg"
   xmlns:inkscape="http://www.inkscape.org/namespaces/inkscape"
   xmlns:sodipodi="http://sodipodi.sourceforge.net/DTD/sodipodi-0.dtd"
   xmlns="http://www.w3.org/2000/svg"
   xmlns:svg="http://www.w3.org/2000/svg">
  <sodipodi:namedview
     id="namedview1"
     pagecolor="#ffffff"
     bordercolor="#000000"
     borderopacity="0.25"
     inkscape:showpageshadow="2"
     inkscape:pageopacity="0.0"
     inkscape:pagecheckerboard="0"
     inkscape:deskcolor="#d1d1d1"
     inkscape:document-units="mm"
     inkscape:zoom="0.45528155"
     inkscape:cx="474.4317"
     inkscape:cy="832.45192"
     inkscape:window-width="1290"
     inkscape:window-height="761"
     inkscape:window-x="0"
     inkscape:window-y="0"
     inkscape:window-maximized="1"
     inkscape:current-layer="layer1" />
  <defs
     id="defs1">
    <inkscape:path-effect
       effect="skeletal"
       id="path-effect11"
       is_visible="true"
       lpeversion="1"
       pattern="M 0,4.9921383 C 0,2.236478 2.236478,0 4.9921383,0 c 2.7556604,0 4.9921384,2.236478 4.9921384,4.9921383 0,2.7556604 -2.236478,4.9921384 -4.9921384,4.9921384 C 2.236478,9.9842767 0,7.7477987 0,4.9921383 Z"
       copytype="single_stretched"
       prop_scale="2.2723288"
       scale_y_rel="false"
       spacing="0"
       normal_offset="0"
       tang_offset="0"
       prop_units="false"
       vertical_pattern="false"
       hide_knot="false"
       fuse_tolerance="0" />
    <inkscape:path-effect
       effect="skeletal"
       id="path-effect10"
       is_visible="true"
       lpeversion="1"
       pattern="M 0,4.9921383 C 0,2.236478 2.236478,0 4.9921383,0 c 2.7556604,0 4.9921384,2.236478 4.9921384,4.9921383 0,2.7556604 -2.236478,4.9921384 -4.9921384,4.9921384 C 2.236478,9.9842767 0,7.7477987 0,4.9921383 Z"
       copytype="single_stretched"
       prop_scale="2.2805361"
       scale_y_rel="false"
       spacing="0"
       normal_offset="0"
       tang_offset="0"
       prop_units="false"
       vertical_pattern="false"
       hide_knot="false"
       fuse_tolerance="0" />
    <inkscape:path-effect
       effect="skeletal"
       id="path-effect9"
       is_visible="true"
       lpeversion="1"
       pattern="M 0,4.9921383 C 0,2.236478 2.236478,0 4.9921383,0 c 2.7556604,0 4.9921384,2.236478 4.9921384,4.9921383 0,2.7556604 -2.236478,4.9921384 -4.9921384,4.9921384 C 2.236478,9.9842767 0,7.7477987 0,4.9921383 Z"
       copytype="single_stretched"
       prop_scale="2.2805361"
       scale_y_rel="false"
       spacing="0"
       normal_offset="0"
       tang_offset="0"
       prop_units="false"
       vertical_pattern="false"
       hide_knot="false"
       fuse_tolerance="0" />
    <inkscape:path-effect
       effect="skeletal"
       id="path-effect8"
       is_visible="true"
       lpeversion="1"
       pattern="M 0,4.9921383 C 0,2.236478 2.236478,0 4.9921383,0 c 2.7556604,0 4.9921384,2.236478 4.9921384,4.9921383 0,2.7556604 -2.236478,4.9921384 -4.9921384,4.9921384 C 2.236478,9.9842767 0,7.7477987 0,4.9921383 Z"
       copytype="single_stretched"
       prop_scale="1"
       scale_y_rel="false"
       spacing="0"
       normal_offset="0"
       tang_offset="0"
       prop_units="false"
       vertical_pattern="false"
       hide_knot="false"
       fuse_tolerance="0" />
    <inkscape:path-effect
       effect="skeletal"
       id="path-effect7"
       is_visible="true"
       lpeversion="1"
       pattern="M 0,4.9921383 C 0,2.236478 2.236478,0 4.9921383,0 c 2.7556604,0 4.9921384,2.236478 4.9921384,4.9921383 0,2.7556604 -2.236478,4.9921384 -4.9921384,4.9921384 C 2.236478,9.9842767 0,7.7477987 0,4.9921383 Z"
       copytype="single_stretched"
       prop_scale="1"
       scale_y_rel="false"
       spacing="0"
       normal_offset="0"
       tang_offset="0"
       prop_units="false"
       vertical_pattern="false"
       hide_knot="false"
       fuse_tolerance="0" />
    <inkscape:path-effect
       effect="fillet_chamfer"
       id="path-effect6"
       is_visible="true"
       lpeversion="1"
       nodesatellites_param="F,0,0,1,0,0,0,1 @ F,0,0,1,0,0,0,1 @ F,0,0,1,0,0,0,1"
       radius="0"
       unit="px"
       method="auto"
       mode="F"
       chamfer_steps="1"
       flexible="false"
       use_knot_distance="true"
       apply_no_radius="true"
       apply_with_radius="true"
       only_selected="false"
       hide_knots="false" />
    <inkscape:path-effect
       effect="spiro"
       id="path-effect1"
       is_visible="true"
       lpeversion="1" />
    <inkscape:path-effect
       effect="skeletal"
       id="path-effect11-2"
       is_visible="true"
       lpeversion="1"
       pattern="M 0,4.9921383 C 0,2.236478 2.236478,0 4.9921383,0 c 2.7556604,0 4.9921384,2.236478 4.9921384,4.9921383 0,2.7556604 -2.236478,4.9921384 -4.9921384,4.9921384 C 2.236478,9.9842767 0,7.7477987 0,4.9921383 Z"
       copytype="single_stretched"
       prop_scale="2.2723288"
       scale_y_rel="false"
       spacing="0"
       normal_offset="0"
       tang_offset="0"
       prop_units="false"
       vertical_pattern="false"
       hide_knot="false"
       fuse_tolerance="0" />
    <inkscape:path-effect
       effect="skeletal"
       id="path-effect11-1"
       is_visible="true"
       lpeversion="1"
       pattern="M 0,4.9921383 C 0,2.236478 2.236478,0 4.9921383,0 c 2.7556604,0 4.9921384,2.236478 4.9921384,4.9921383 0,2.7556604 -2.236478,4.9921384 -4.9921384,4.9921384 C 2.236478,9.9842767 0,7.7477987 0,4.9921383 Z"
       copytype="single_stretched"
       prop_scale="2.2723288"
       scale_y_rel="false"
       spacing="0"
       normal_offset="0"
       tang_offset="0"
       prop_units="false"
       vertical_pattern="false"
       hide_knot="false"
       fuse_tolerance="0" />
  </defs>
  <g
     inkscape:label="Ebene 1"
     inkscape:groupmode="layer"
     id="layer1"
     style="display:inline">
    <path
       id="rect11"
       style="display:inline;fill:#999999;stroke-width:0.160568"
       d="M 197.5559,47.267127 V 351.01378 h 12.37785 V 47.267127 Z m -22.31034,0.770507 V 351.78388 h 12.37782 V 48.037634 Z"
       inkscape:label="flag" />
    <path
       style="display:inline;fill:#ececec;stroke:none;stroke-width:0.264583"
       d="m 237.64539,129.09255 c -1.20067,-0.0288 -1.57312,-5.46111 -4.63281,-13.65145 -1.02843,-2.73066 -2.52412,-5.9809 -4.74779,-8.57992 -1.56097,-1.85268 -3.59221,-3.56348 -5.98258,-4.74041 0,0 -1e-5,0 -1e-5,0 -2.15335,-1.09564 -4.69153,-1.7884 -7.55329,-2.166868 -2.90664,-0.378451 -6.02979,-0.318951 -9.46913,0.0288 -3.54062,0.368938 -7.19384,1.099548 -11.1046,2.114058 -8.02271,2.08045 -16.09095,5.19484 -25.09614,9.26184 -8.32944,3.77897 -16.75939,8.16019 -25.71021,13.23205 -7.41228,4.20331 -14.93657,8.7622 -22.67955,13.72624 -5.31775,3.41005 -10.70201,6.98701 -16.10148,10.73635 v 0 c -1.50212,1.04312 -3.0005,2.09599 -4.48481,3.15953 v 0 c -0.392161,0.281 -0.779127,0.55973 -1.15978,0.8366 0,0 -10e-7,0 -10e-7,0 -0.05181,0.0366 -0.100761,0.0714 -0.146755,0.10438 -10e-7,0 -10e-7,0 -2e-6,0 0.0057,-0.004 -0.08076,0.0601 -0.07503,0.0558 0.0013,-0.001 -0.02035,0.0152 -0.01902,0.0142 -4.878755,3.89661 -9.515642,7.75138 -12.805869,12.00337 -1.061881,1.38351 -1.92626,2.58357 -2.382298,3.63546 0,0 -5e-6,1e-5 -5e-6,1e-5 -0.295408,0.78946 -0.506135,1.21885 -0.404033,1.22628 0.0571,-0.12614 0.01898,-0.32796 -0.07865,-0.76901 -0.187483,-0.34001 -0.132688,-0.40476 -2.02e-4,-0.20698 0.232811,0.28095 0.853003,0.64112 1.728833,1.17569 0,0 1.3e-5,1e-5 1.3e-5,1e-5 1.063211,0.60875 2.391734,1.14789 3.927516,1.71277 3.887633,1.42098 8.299319,2.32871 13.144573,3.1894 5.80719,1.00053 11.81303,1.67782 18.06984,2.25556 13.25879,1.2188 26.57179,1.81371 40.72716,2.48461 -0.21593,-0.0102 3.11184,0.14832 2.89591,0.13809 14.78449,0.70111 29.10342,1.36498 43.72678,2.90055 6.16698,0.64313 12.38968,1.46498 18.67511,2.72259 4.86132,0.92598 10.10537,2.27657 15.48109,4.602 2.07307,0.88286 4.32304,2.12332 6.63538,3.82083 1.94266,1.36021 3.89312,3.41009 5.65029,6.17805 0,0 3e-5,5e-5 3e-5,5e-5 1.60514,2.70319 2.46565,5.75736 2.53146,8.9989 -0.0882,3.56553 -0.82832,6.51353 -1.977,8.76928 0,0 -2e-5,4e-5 -2e-5,4e-5 -1.43767,2.98491 -3.08755,5.36787 -4.7212,7.22165 0,0 -2e-5,2e-5 -2e-5,2e-5 -2.21077,2.58776 -4.50339,4.77984 -6.72947,6.66986 -6.75321,5.73341 -13.86094,10.33179 -20.5379,14.31387 -0.009,0.005 -0.0449,0.0248 -0.0466,0.0257 -0.006,0.003 -0.13028,0.0717 -0.13633,0.0751 -0.17825,0.098 -0.35505,0.195 -0.5303,0.29093 -0.45988,0.24255 -0.91508,0.48018 -1.36477,0.71344 -1.70539,0.88461 -3.40242,1.74554 -5.08294,2.58545 -6.06612,3.03197 -12.07017,5.87187 -17.96559,8.53368 -8.64397,3.90372 -17.05925,7.42281 -25.30529,10.58142 -10.04677,3.85067 -19.62332,7.08072 -28.99351,9.7068 -10.24284,2.88126 -19.7709,4.89511 -29.09147,5.90919 -9.27446,1.07244 -17.804931,0.9259 -25.788826,-1.00766 -3.845498,-0.93218 -7.403713,-2.40077 -10.538121,-4.37752 -3.363771,-2.13404 -5.957379,-4.85632 -7.778586,-7.72658 -2.371317,-3.82544 -3.329306,-7.69222 -3.645425,-10.785 -0.912912,-8.96816 1.39898,-13.17849 2.504855,-13.08548 1.105876,0.093 1.142703,4.84103 3.736705,11.70273 0.881162,2.31873 2.216509,5.03058 4.221213,7.13273 1.484801,1.60509 3.449273,3.01379 5.79649,4.04799 2.241485,1.00523 4.83378,1.61292 7.819018,1.98115 6.415498,0.80432 13.175497,0.007 21.566377,-1.62888 8.30083,-1.68772 16.75447,-4.24656 26.27582,-7.64825 8.66082,-3.10557 17.51319,-6.73415 26.97512,-10.96863 7.74947,-3.47029 15.66647,-7.25358 23.85379,-11.39372 5.58237,-2.82345 11.25764,-5.79521 16.97322,-8.92299 1.58372,-0.86671 3.16635,-1.743 4.73797,-2.63025 0.41456,-0.23403 0.82434,-0.46659 1.22831,-0.69808 0.047,-0.026 0.0924,-0.0513 0.13619,-0.0759 0.0111,-0.006 0.0222,-0.0125 0.0331,-0.0187 0.001,-7.5e-4 0.002,-0.001 0.004,-0.002 6.02143,-3.94533 11.95251,-8.00354 16.90913,-12.5761 1.65117,-1.5225 3.1215,-2.96917 4.24754,-4.40868 0,0 1e-5,-2e-5 1e-5,-2e-5 0.80952,-1.09494 1.40893,-1.89192 1.56221,-2.42753 0,0 0,-1e-5 0,-1e-5 0.031,-0.35785 0.0939,-0.24063 -0.0359,0.43905 0.0293,0.74893 0.165,1.32413 0.48154,1.87752 0,0 1e-5,1e-5 1e-5,1e-5 0.32928,0.38719 0.25631,0.46437 -0.0395,0.15521 -0.43685,-0.35171 -1.25079,-0.71748 -2.34301,-1.21368 -2.98601,-1.31763 -6.68871,-2.10182 -10.93656,-2.94292 -5.31235,-0.99222 -10.85862,-1.63464 -16.68211,-2.19179 -13.83471,-1.31297 -27.67396,-1.85757 -42.5668,-2.56402 2.07444,0.0971 -4.96505,-0.23253 -2.8906,-0.13543 -14.12985,-0.66385 -27.87693,-1.35833 -41.81946,-2.76666 -6.59191,-0.66327 -13.1973,-1.50209 -19.836835,-2.7341 -5.443704,-0.98483 -11.109204,-2.32563 -16.842277,-4.46092 -2.318805,-0.85997 -4.74862,-1.96039 -7.217893,-3.38572 0,0 -2.9e-5,-2e-5 -2.9e-5,-2e-5 -2.076081,-1.16522 -4.251763,-2.78043 -6.382873,-4.91865 -1.896738,-1.87939 -3.527284,-4.36517 -4.727051,-7.40744 -1.100745,-3.11974 -1.436533,-6.23419 -1.06936,-9.18581 0.477155,-3.41047 1.454112,-6.25947 2.692626,-8.5171 0,0 1.6e-5,-3e-5 1.6e-5,-3e-5 1.577971,-2.9883 3.362875,-5.48007 5.15295,-7.54466 5.389265,-6.24126 11.388204,-11.07814 16.992487,-15.11333 0.008,-0.006 0.02789,-0.0191 0.02883,-0.0197 0.0034,-0.002 0.08248,-0.0555 0.08591,-0.0578 0,0 1e-6,0 1e-6,0 0.164919,-0.11573 0.32712,-0.22919 0.486541,-0.34049 7e-6,0 7e-6,0 8e-6,0 0.439867,-0.29774 0.875226,-0.58949 1.305142,-0.8758 v 0 c 1.62778,-1.08406 3.250023,-2.14133 4.857996,-3.17416 v 0 c 5.780902,-3.71341 11.528791,-7.21469 17.196501,-10.51545 8.25016,-4.80602 16.33281,-9.1839 24.31181,-13.15927 9.61162,-4.79218 18.86429,-8.892503 28.02683,-12.312626 9.83555,-3.687453 19.15938,-6.408781 28.43882,-7.967392 4.559,-0.766351 9.02047,-1.192134 13.41594,-1.202697 4.26866,-0.02086 8.42259,0.421097 12.39546,1.406359 3.97417,0.976686 7.62801,2.606204 10.78696,4.776856 0,0 1e-5,8e-6 1e-5,8e-6 3.53981,2.469853 6.16124,5.535364 7.96478,8.641272 2.48012,4.3373 3.52325,8.66562 3.93828,12.11157 1.24154,10.1883 -0.87587,15.25049 -2.07654,15.22167 z"
       id="path10"
       sodipodi:nodetypes="cccc"
       transform="matrix(1.8331452,0,0,1.8331452,-95.366414,-142.66881)"
       inkscape:label="symbol" />
  </g>
</svg>
